With: Rowan Atkinson, Rosamund Pike en Dominic West

Er wordt opnieuw een beroep gedaan op Johnny English, de onwaarschijnlijke geheim agent in de Britse geheime dienst. Na zijn laatste perikelen heeft MI-7's Johnny English zijn vaardigheden bijgespijkerd in een afgelegen Aziatisch gebied. Maar wanneer zijn leidinggevenden lucht krijgen van een moordpoging op de Chinese president, wat een wereldchaos zal veroorzaken, gaan zij onmiddellijk op zoek naar hun onorthodoxe agent. Johnny moet wederom high-tech gadgets besturen om een web van list en bedrog te ontrafelen waarbij MI-7, de CIA en de KGB betrokken zijn.

Johnny English goes up against international assassins hunting down the Chinese premier. 

------------------------ Dutch Friends ------------------------
---------------------------------------------------------------
- Bezoek ook eens mijn vrienden op:  http://www.Film-Test.nl --
----- voor mijn Nederlandse Sync. ondertitels ---- en meer ----
------- http://www.Film-Test.nl ---- voor Films en meer -------
---------------------------------------------------------------

General:

Complete name                    : Johnny English Reborn\Johnny English Reborn.avi
Format                           : AVI
Format/Info                      : Audio Video Interleave
File size                        : 1.13 GiB
Duration                         : 1h 37mn
Overall bit rate                 : 1 662 Kbps

Video:

Format                           : MPEG-4 Visual
Format profile                   : Simple@L3
Format settings, BVOP            : No
Format settings, QPel            : No
Format settings, GMC             : No warppoints
Format settings, Matrix          : Default (H.263)
Codec ID                         : XVID
Codec ID/Hint                    : XviD
Duration                         : 1h 37mn
Bit rate                         : 1 459 Kbps
Width                            : 720 pixels
Height                           : 304 pixels
Display aspect ratio             : 2.35:1
Frame rate                       : 25.000 fps
Color space                      : YUV
Chroma subsampling               : 4:2:0
Bit depth                        : 8 bits
Scan type                        : Progressive
Compression mode                 : Lossy
Bits/(Pixel*Frame)               : 0.267
Stream size                      : 1 015 MiB (88%)
Writing library                  : XviD 1.1.2 (UTC 2006-11-01)

Audio:

Format                           : AC-3
Format/Info                      : Audio Coding 3
Mode extension                   : CM (complete main)
Codec ID                         : 2000
Duration                         : 1h 37mn
Bit rate mode                    : Constant
Bit rate                         : 192 Kbps
Channel(s)                       : 2 channels
Channel positions                : Front: L R
Sampling rate                    : 48.0 KHz
Bit depth                        : 16 bits
Compression mode                 : Lossy
Stream size                      : 134 MiB (12%)
Alignment                        : Aligned on interleaves
Interleave, duration             : 32 ms (0.80 video frame)


